<?xml version="1.0" encoding="utf-8"?>
<!-- Generator: Adobe Illustrator 28.0.0, SVG Export Plug-In . SVG Version: 6.00 Build 0)  -->
<svg version="1.1" id="Layer_1" xmlns="http://www.w3.org/2000/svg" xmlns:xlink="http://www.w3.org/1999/xlink" x="0px" y="0px"
	 viewBox="0 0 841.89 595.28" style="enable-background:new 0 0 841.89 595.28;" xml:space="preserve">
<style type="text/css">
	.st0{fill:#FFFFFF;}
	.st1{fill:#5CE1E6;}
</style>
<path class="st0" d="M805.69,696.64c-256.5,0-513,0-769.5,0c0-262.12,0-524.24,0-786.36c256.5,0,513,0,769.5,0
	C805.69,172.4,805.69,434.52,805.69,696.64z M177.82,201.55c0.35-0.15,0.7-0.29,1.06-0.44c0.7,1.01,1.48,1.97,2.1,3.03
	c2.59,4.4,5.08,8.87,7.72,13.25c11.44,18.94,22.96,37.84,34.35,56.81c1.38,2.29,3,3.1,5.6,2.99c4.22-0.19,8.45-0.05,12.68-0.05
	c6.11,0,6.12,0,6.12-5.99c0-33.3,0-66.59,0-99.89c0-0.77-0.06-1.54,0-2.3c0.17-2.59-0.9-3.7-3.59-3.61
	c-4.48,0.14-8.97,0.22-13.44-0.02c-3.49-0.19-4.63,0.92-4.6,4.53c0.16,20.87,0.08,41.75,0.08,62.62c0,1.33,0,2.65,0,3.98
	c-0.35,0.1-0.69,0.19-1.04,0.29c-0.9-1.32-1.87-2.59-2.7-3.95c-12.93-21.31-25.88-42.62-38.72-63.99c-1.49-2.48-3.16-3.63-6.14-3.49
	c-4.86,0.24-9.73,0.06-14.6,0.06c-6.56,0-6.56,0-6.56,6.39c0,22.54,0,45.08,0,67.62c0,11.27,0.07,22.54-0.04,33.81
	c-0.03,2.96,0.9,4.15,3.97,4c4.34-0.21,8.72-0.27,13.06,0.01c3.65,0.24,4.83-0.92,4.8-4.69c-0.17-22.28-0.08-44.56-0.08-66.85
	C177.82,204.29,177.82,202.92,177.82,201.55z M356.67,362.06c6.18,0,11.68,0.18,17.16-0.04c6.71-0.27,13.25-0.42,19.72-3.54
	c12.96-6.25,19.1-16.29,19.91-30.3c1.04-18.01-8.82-31.84-25.94-35.66c-3.47-0.77-7.1-1.08-10.66-1.12
	c-12.68-0.13-25.36,0.06-38.04-0.13c-3.5-0.05-4.62,0.93-4.59,4.52c0.15,21.77,0.07,43.54,0.07,65.31c0,12.68,0.07,25.36-0.05,38.03
	c-0.03,2.97,0.89,4.18,3.95,4.02c3.83-0.2,7.68-0.01,11.52-0.05c7.09-0.08,6.95,1.19,6.94-7.14c-0.01-9.73,0-19.47,0-29.2
	C356.67,365.38,356.67,364,356.67,362.06z M520.49,392.06c2.83,3.39,4.9,7.41,8.19,9.47c6.2,3.88,13.26,3.18,19.99,0.8
	c0.94-0.33,1.96-2.06,1.95-3.13c-0.04-3.7-0.35-7.42-0.97-11.07c-0.16-0.95-1.85-2.37-2.81-2.35c-5.7,0.13-6.81-0.74-6.84-6.38
	c-0.05-12.54,0-25.09-0.1-37.63c-0.08-9.94-7.38-21.65-19.03-23.89c-16.78-3.22-31.65-0.17-44.36,11.78
	c-2.26,2.12-2.49,3.71-0.6,6.07c1.67,2.09,3,4.45,4.48,6.69c2.89,4.37,2.82,4.3,6.71,0.97c7.76-6.65,16.47-10.24,26.87-7.8
	c3.28,0.77,5,3.04,5.31,6.27c0.3,3.08-0.89,5.63-3.81,6.88c-2.57,1.09-5.28,1.9-7.98,2.61c-6.91,1.81-14.09,2.87-20.7,5.41
	c-5.7,2.19-10.45,6.39-12.93,12.37c-4.96,11.94-0.31,32.93,18.69,35.25c8.66,1.06,16.97,0.38,23.58-6.18
	C517.97,396.38,519.19,393.93,520.49,392.06z M544.89,240.09c1.8,0,3.31,0,4.83,0c14.6,0,29.2-0.07,43.8,0.04
	c3.53,0.03,5.37-1.27,5.27-4.86c-0.14-5.11,0.02-10.26-0.58-15.32c-1.76-14.72-10.16-24.41-24.03-27.35
	c-4.94-1.05-10.18-1.26-15.25-1.09c-15.83,0.54-28.66,10.68-33.36,25.6c-2.84,8.99-3.36,18.08-2.05,27.32
	c2.15,15.1,9.44,26.39,24.42,31.51c9.56,3.27,19.36,3.57,29.12,0.99c8.72-2.3,15.17-7.72,19.75-15.43c0.92-1.55,1.58-2.84-0.47-4.19
	c-3.5-2.31-6.85-4.85-10.26-7.29c-2.07-1.48-3.79-1.45-4.88,1.15c-1.84,4.36-5.28,7.01-9.71,7.95
	C556.67,262.26,546.13,257.79,544.89,240.09z M659.26,265.84c6.57,11.17,15.65,14.77,26.66,10.52c1.29-0.5,2.88-2.33,2.92-3.59
	c0.1-3.42-0.52-6.87-0.94-10.3c-0.2-1.68-0.78-2.76-2.99-2.45c-5.32,0.77-6.62-0.46-6.64-5.85c-0.04-12.55,0.11-25.11-0.09-37.65
	c-0.22-13.51-7.54-22.15-20.89-24.35c-5.13-0.85-10.48-1.03-15.67-0.63c-10.54,0.81-19.8,4.96-27.34,12.49
	c-0.82,0.82-1.43,2.86-0.98,3.75c1.84,3.63,4.14,7.03,6.24,10.53c1.43,2.38,2.99,2.52,4.83,0.45c0.59-0.67,1.38-1.16,1.97-1.82
	c6.28-7,14.41-8.79,23.32-8.16c4.61,0.33,7.15,2.53,7.6,6.16c0.63,5.04-0.67,7.35-5.53,9.13c-2.39,0.87-4.93,1.32-7.39,2
	c-7.24,2-14.78,3.3-21.64,6.22c-9.7,4.13-13.37,12.32-12.36,24.09c0.88,10.19,6.85,17.84,16.2,20.74
	C639.76,281.22,649.7,277.85,659.26,265.84z M315.63,265.15c0.86,1.81,1.36,2.92,1.9,4.02c2.13,4.29,5.5,7.33,10.23,7.85
	c4.38,0.48,8.88,0.22,13.29-0.16c3.5-0.3,5.03-2.44,4.28-6.15c-0.53-2.62-0.38-5.39-1.01-7.98c-0.26-1.06-1.81-2.6-2.72-2.57
	c-6.01,0.2-6.91-0.49-6.93-6.5c-0.03-12.55,0.1-25.11-0.08-37.66c-0.18-12.71-7.74-21.72-20.25-23.74
	c-5.38-0.87-10.99-1.12-16.43-0.71c-10.54,0.81-19.71,5.11-27.41,12.47c-1.63,1.55-1.72,2.79-0.45,4.59
	c1.61,2.29,3.06,4.71,4.36,7.19c2.82,5.42,3.69,5.6,8.18,1.3c0.18-0.18,0.39-0.33,0.57-0.52c6.5-7.02,14.82-8.63,23.83-7.67
	c3.47,0.37,6.33,2,6.74,6.16c0.47,4.84-0.56,7.01-4.98,8.73c-2.6,1.01-5.4,1.53-8.1,2.29c-7.23,2.02-14.76,3.35-21.63,6.25
	c-9.87,4.17-13.02,12.83-12.27,23.03c0.74,10,5.17,17.62,14.95,21.27c6.41,2.39,12.98,2.53,19.61,0.73
	C307.71,275.63,312.22,271.55,315.63,265.15z M408.2,265.23c0.29,0.11,0.57,0.21,0.86,0.32c0,2.54,0.09,5.09-0.03,7.63
	c-0.13,2.71,0.79,4.01,3.73,3.9c4.48-0.17,8.97-0.14,13.45-0.01c2.66,0.08,3.63-0.98,3.62-3.6c-0.05-25.74-0.06-51.48,0.01-77.22
	c0.01-2.77-1.16-3.52-3.71-3.43c-4.35,0.14-8.73,0.3-13.06-0.04c-3.99-0.32-4.98,1.17-4.94,4.99c0.17,14.47,0.24,28.95-0.11,43.41
	c-0.33,13.58-7.66,20.18-20.05,18.8c-5.57-0.62-8.81-3.76-9.41-9.37c-0.27-2.54-0.3-5.11-0.3-7.67c-0.03-15.37-0.06-30.74,0.02-46.1
	c0.02-2.88-0.76-4.22-3.92-4.03c-3.96,0.24-7.94,0.05-11.91,0.06c-5.73,0-5.74,0-5.74,5.56c-0.01,12.68-0.07,25.36,0.03,38.04
	c0.05,6.52,0.02,13.08,0.67,19.55c0.82,8.12,4.22,15.05,11.72,19.19c12.74,7.04,29.05,3.39,37.66-8.3
	C407.23,266.3,407.73,265.78,408.2,265.23z M586.64,405.05c14.48-0.7,24.88-2.45,31.76-12.9c6.59-10.03,5.58-23-2.55-31.77
	c-4.68-5.05-10.71-6.67-16.89-8.27c-4.82-1.25-9.72-2.21-14.52-3.55c-3.51-0.98-5.74-3.21-5.55-7.25c0.19-4.03,2.9-5.57,6.24-6.13
	c7.35-1.24,14.44-0.54,20.1,4.87c2.6,2.48,4.2,2,6.22-0.45c2.03-2.47,4.15-4.92,6.52-7.05c2.56-2.3,1.75-3.8-0.28-5.93
	c-6.02-6.29-13.51-9.07-21.92-9.59c-10.63-0.66-20.84,0.04-29.29,8.06c-8.94,8.5-10.22,22.01-3.02,32.09
	c4.47,6.25,10.92,8.56,17.7,10.53c5.03,1.46,10.2,2.48,15.2,4.01c3.62,1.11,5.83,3.59,5.51,7.74c-0.31,4.03-2.91,5.81-6.46,6.49
	c-9.71,1.85-18.02-0.87-24.64-8.18c-2.02-2.23-3.44-2.65-5.51-0.22c-2.58,3.02-5.3,5.92-8.09,8.74c-1.43,1.45-1.65,2.67-0.36,4.29
	c3.37,4.23,6.84,8.49,12.23,10.06C575.84,402.63,582.81,404.11,586.64,405.05z M509.33,203.16c-2.21-1.97-4.04-4.2-6.38-5.57
	c-14.08-8.24-28.74-8.72-43.27-1.64c-8.59,4.19-12.32,12.04-12.16,21.51c0.16,9.42,4.54,16.43,13.12,20.43
	c3.56,1.66,7.41,2.77,11.19,3.91c4.65,1.39,9.43,2.36,14.03,3.86c3.77,1.23,5.3,4.34,4.98,8.17c-0.33,3.85-2.88,6.12-6.45,6.61
	c-10.09,1.37-19.13-0.45-25.4-9.49c-1.57-2.26-2.99-1.86-4.54,0.06c-1.99,2.48-4.01,4.96-6.16,7.3c-4.61,5.04-4.62,5.47,0.53,10.26
	c0.56,0.52,1.12,1.07,1.76,1.49c15.2,9.85,31.3,11.73,47.75,4.02c10.47-4.91,14.05-14.3,13.16-25.55
	c-0.79-10-6.61-16.02-15.54-19.49c-2.37-0.92-4.85-1.62-7.31-2.26c-5.44-1.42-10.97-2.53-16.34-4.17c-3.63-1.11-5.03-4.07-4.65-7.87
	c0.35-3.57,2.77-5.25,5.81-5.72c8.28-1.29,16.12-0.66,22.21,6.22c0.46,0.52,2.23,0.75,2.59,0.37
	C501.92,211.68,505.41,207.62,509.33,203.16z M662.59,299.29c-6.87,1.14-12.8,2.01-18.67,3.22c-0.86,0.18-1.86,1.94-1.95,3.05
	c-0.27,3.18-0.19,6.4-0.09,9.59c0.08,2.43-0.85,3.35-3.34,3.45c-9.01,0.36-9.05,0.44-8.99,9.58c0.05,8.78-1.09,7.85,7.75,7.74
	c3.45-0.04,4.7,0.96,4.64,4.56c-0.18,12.16-0.22,24.33,0.01,36.49c0.17,8.85,2.47,17.16,9.89,22.77c8.38,6.34,25.57,6.32,34.44,0.58
	c1.82-1.18,2.38-2.44,1.66-4.46c-1.12-3.13-2.3-6.26-3.13-9.47c-0.94-3.63-2.3-4.22-5.89-2.49c-9.29,4.49-16.24,0.04-16.31-10.1
	c-0.08-11.27,0.05-22.54-0.07-33.8c-0.03-2.97,0.96-4.13,3.99-4.04c5.24,0.16,10.5-0.02,15.75,0.05c2.42,0.03,3.52-0.89,3.45-3.39
	c-0.1-3.45-0.14-6.92,0.02-10.37c0.13-2.93-1.21-3.79-3.92-3.72c-4.73,0.12-9.47,0.04-14.21,0.03c-5.01-0.02-5.01-0.03-5.03-5.2
	C662.58,308.92,662.59,304.47,662.59,299.29z M430.31,335.54c0.01,0,0.02,0,0.03,0c0,15.5-0.23,31.01,0.1,46.5
	c0.16,7.73,2.19,15.15,9.48,19.46c6.88,4.07,14.41,4.11,21.93,2.06c0.98-0.27,2.18-2.14,2.16-3.24c-0.1-3.95-0.72-7.89-1.08-11.84
	c-0.23-2.55-1.18-3.52-4-2.99c-4.64,0.87-6.98-1.19-7.35-5.94c-0.1-1.27-0.05-2.56-0.05-3.84c0-28.7,0-57.39,0-86.09
	c0-5.01-0.01-5.01-5.14-5.03c-3.84-0.01-7.7,0.17-11.53-0.05c-3.42-0.2-4.69,0.83-4.64,4.5
	C430.43,304.54,430.31,320.04,430.31,335.54z"/>
<path d="M177.82,201.55c0,1.37,0,2.74,0,4.12c0,22.28-0.08,44.57,0.08,66.85c0.03,3.77-1.15,4.93-4.8,4.69
	c-4.34-0.28-8.71-0.22-13.06-0.01c-3.07,0.15-4-1.04-3.97-4c0.12-11.27,0.04-22.54,0.04-33.81c0-22.54,0-45.08,0-67.62
	c0-6.38,0-6.38,6.56-6.39c4.87,0,9.74,0.17,14.6-0.06c2.98-0.15,4.65,1.01,6.14,3.49c12.84,21.37,25.79,42.67,38.72,63.99
	c0.83,1.36,1.8,2.64,2.7,3.95c0.35-0.1,0.69-0.19,1.04-0.29c0-1.33,0-2.65,0-3.98c0-20.87,0.08-41.75-0.08-62.62
	c-0.03-3.61,1.11-4.73,4.6-4.53c4.47,0.25,8.96,0.17,13.44,0.02c2.69-0.09,3.77,1.03,3.59,3.61c-0.05,0.76,0,1.54,0,2.3
	c0,33.3,0,66.59,0,99.89c0,5.98-0.01,5.99-6.12,5.99c-4.23,0-8.46-0.14-12.68,0.05c-2.6,0.11-4.22-0.69-5.6-2.99
	c-11.39-18.97-22.9-37.87-34.35-56.81c-2.64-4.37-5.13-8.84-7.72-13.25c-0.62-1.06-1.4-2.02-2.1-3.03
	C178.53,201.25,178.18,201.4,177.82,201.55z"/>
<path d="M356.67,362.06c0,1.94,0,3.32,0,4.7c0,9.73,0,19.47,0,29.2c0,8.33,0.14,7.05-6.94,7.14c-3.84,0.05-7.69-0.14-11.52,0.05
	c-3.06,0.16-3.98-1.05-3.95-4.02c0.12-12.68,0.05-25.36,0.05-38.03c0-21.77,0.08-43.54-0.07-65.31c-0.02-3.59,1.09-4.57,4.59-4.52
	c12.68,0.19,25.36,0,38.04,0.13c3.56,0.04,7.19,0.34,10.66,1.12c17.12,3.82,26.98,17.65,25.94,35.66
	c-0.81,14.01-6.94,24.04-19.91,30.3c-6.47,3.12-13.02,3.28-19.72,3.54C368.34,362.24,362.84,362.06,356.67,362.06z M356.72,309.6
	c0,10.72-0.05,21.31,0.12,31.89c0.01,0.67,1.67,1.88,2.57,1.88c6.39-0.01,12.8,0.04,19.16-0.53c6.76-0.6,10.77-4.45,11.85-11.1
	c0.54-3.34,0.61-6.9,0.13-10.25c-1-6.96-4.75-11.11-11.69-11.75C371.66,309.08,364.35,309.6,356.72,309.6z"/>
<path d="M520.49,392.06c-1.3,1.87-2.52,4.32-4.36,6.15c-6.61,6.56-14.92,7.24-23.58,6.18c-19-2.33-23.65-23.31-18.69-35.25
	c2.48-5.98,7.23-10.18,12.93-12.37c6.62-2.54,13.8-3.6,20.7-5.41c2.71-0.71,5.42-1.52,7.98-2.61c2.92-1.24,4.11-3.8,3.81-6.88
	c-0.31-3.23-2.03-5.5-5.31-6.27c-10.41-2.44-19.12,1.14-26.87,7.8c-3.88,3.33-3.82,3.4-6.71-0.97c-1.48-2.24-2.81-4.6-4.48-6.69
	c-1.89-2.36-1.66-3.95,0.6-6.07c12.71-11.95,27.59-15,44.36-11.78c11.65,2.24,18.95,13.94,19.03,23.89
	c0.1,12.54,0.05,25.09,0.1,37.63c0.02,5.64,1.14,6.51,6.84,6.38c0.96-0.02,2.64,1.39,2.81,2.35c0.62,3.64,0.92,7.37,0.97,11.07
	c0.01,1.07-1.01,2.8-1.95,3.13c-6.73,2.39-13.79,3.08-19.99-0.8C525.39,399.47,523.32,395.45,520.49,392.06z M519.97,362.89
	c-6.61,1.6-12.28,2.89-17.9,4.37c-1.7,0.45-3.38,1.21-4.88,2.14c-3.3,2.04-4.21,5.38-3.99,8.97c0.23,3.79,1.81,6.81,5.61,8.4
	c8.05,3.36,17.56-0.69,19.69-9.09C519.7,372.95,519.52,367.88,519.97,362.89z"/>
<path d="M544.89,240.09c1.23,17.69,11.78,22.17,26.59,19.04c4.43-0.93,7.87-3.59,9.71-7.95c1.1-2.6,2.82-2.63,4.88-1.15
	c3.41,2.44,6.76,4.98,10.26,7.29c2.05,1.35,1.39,2.65,0.47,4.19c-4.59,7.71-11.04,13.13-19.75,15.43
	c-9.76,2.58-19.57,2.28-29.12-0.99c-14.98-5.12-22.26-16.41-24.42-31.51c-1.32-9.23-0.79-18.33,2.05-27.32
	c4.71-14.92,17.54-25.06,33.36-25.6c5.07-0.17,10.31,0.04,15.25,1.09c13.86,2.94,22.27,12.62,24.03,27.35
	c0.6,5.06,0.44,10.21,0.58,15.32c0.1,3.59-1.74,4.89-5.27,4.86c-14.6-0.11-29.2-0.04-43.8-0.04
	C548.2,240.09,546.69,240.09,544.89,240.09z M545.4,225.6c11.04,0,21.81,0,32.57,0c0.11-13.14-5.33-16.7-13.87-17.49
	C553.94,207.17,546.88,213.62,545.4,225.6z"/>
<path d="M659.26,265.84c-9.56,12-19.5,15.37-32.71,11.28c-9.35-2.9-15.32-10.54-16.2-20.74c-1.01-11.77,2.66-19.96,12.36-24.09
	c6.85-2.92,14.4-4.21,21.64-6.22c2.46-0.68,5.01-1.13,7.39-2c4.86-1.78,6.16-4.09,5.53-9.13c-0.45-3.63-2.99-5.83-7.6-6.16
	c-8.91-0.63-17.04,1.16-23.32,8.16c-0.6,0.66-1.38,1.15-1.97,1.82c-1.84,2.07-3.4,1.93-4.83-0.45c-2.1-3.5-4.4-6.9-6.24-10.53
	c-0.45-0.89,0.16-2.93,0.98-3.75c7.54-7.53,16.8-11.69,27.34-12.49c5.18-0.4,10.54-0.22,15.67,0.63
	c13.35,2.2,20.67,10.84,20.89,24.35c0.21,12.55,0.06,25.1,0.09,37.65c0.02,5.39,1.32,6.62,6.64,5.85c2.2-0.32,2.78,0.77,2.99,2.45
	c0.42,3.43,1.04,6.88,0.94,10.3c-0.04,1.26-1.63,3.09-2.92,3.59C674.91,280.62,665.83,277.01,659.26,265.84z M658.24,236.48
	c-6.33,1.58-11.85,2.91-17.34,4.36c-1.71,0.45-3.45,1.02-4.99,1.87c-3.67,2.05-4.62,5.52-4.5,9.46c0.11,3.67,1.3,6.74,4.7,8.6
	c8.09,4.43,19.2-0.47,20.84-9.49C657.82,246.45,657.84,241.45,658.24,236.48z"/>
<path d="M315.63,265.15c-3.4,6.4-7.92,10.48-14.34,12.22c-6.63,1.8-13.2,1.66-19.61-0.73c-9.78-3.65-14.21-11.27-14.95-21.27
	c-0.76-10.2,2.4-18.86,12.27-23.03c6.86-2.9,14.39-4.23,21.63-6.25c2.7-0.76,5.5-1.28,8.1-2.29c4.42-1.72,5.45-3.89,4.98-8.73
	c-0.4-4.15-3.27-5.79-6.74-6.16c-9-0.96-17.32,0.65-23.83,7.67c-0.17,0.19-0.38,0.34-0.57,0.52c-4.49,4.31-5.36,4.13-8.18-1.3
	c-1.29-2.48-2.75-4.9-4.36-7.19c-1.27-1.81-1.17-3.04,0.45-4.59c7.7-7.36,16.87-11.66,27.41-12.47c5.43-0.42,11.05-0.16,16.43,0.71
	c12.52,2.02,20.07,11.02,20.25,23.74c0.18,12.55,0.05,25.1,0.08,37.66c0.01,6.01,0.91,6.7,6.93,6.5c0.92-0.03,2.46,1.51,2.72,2.57
	c0.63,2.59,0.48,5.36,1.01,7.98c0.75,3.71-0.78,5.85-4.28,6.15c-4.41,0.38-8.91,0.64-13.29,0.16c-4.73-0.52-8.1-3.56-10.23-7.85
	C316.98,268.08,316.48,266.96,315.63,265.15z M314.74,236.48c-6.6,1.64-12.37,3.01-18.1,4.52c-1.58,0.42-3.17,1.04-4.58,1.88
	c-3.64,2.17-4.37,5.74-4.21,9.63c0.16,3.68,1.47,6.69,4.95,8.44c7.61,3.82,17.82,0,20.02-8.17
	C314.24,247.51,314.16,241.85,314.74,236.48z"/>
<path d="M408.2,265.23c-0.47,0.55-0.97,1.07-1.4,1.65c-8.61,11.7-24.92,15.35-37.66,8.3c-7.5-4.15-10.91-11.07-11.72-19.19
	c-0.65-6.48-0.62-13.03-0.67-19.55c-0.09-12.68-0.03-25.36-0.03-38.04c0-5.55,0.01-5.55,5.74-5.56c3.97,0,7.95,0.18,11.91-0.06
	c3.16-0.19,3.93,1.15,3.92,4.03c-0.09,15.37-0.05,30.74-0.02,46.1c0,2.56,0.03,5.13,0.3,7.67c0.6,5.61,3.84,8.75,9.41,9.37
	c12.39,1.38,19.72-5.22,20.05-18.8c0.35-14.46,0.27-28.94,0.11-43.41c-0.04-3.82,0.95-5.3,4.94-4.99c4.33,0.34,8.71,0.18,13.06,0.04
	c2.55-0.08,3.72,0.66,3.71,3.43c-0.07,25.74-0.06,51.48-0.01,77.22c0.01,2.63-0.97,3.68-3.62,3.6c-4.48-0.13-8.97-0.16-13.45,0.01
	c-2.94,0.11-3.86-1.19-3.73-3.9c0.12-2.54,0.03-5.09,0.03-7.63C408.77,265.44,408.48,265.33,408.2,265.23z"/>
<path d="M586.64,405.05c-3.83-0.94-10.8-2.42-17.61-4.41c-5.39-1.57-8.85-5.83-12.23-10.06c-1.3-1.63-1.08-2.85,0.36-4.29
	c2.79-2.82,5.51-5.73,8.09-8.74c2.07-2.43,3.49-2.01,5.51,0.22c6.62,7.31,14.93,10.03,24.64,8.18c3.55-0.68,6.15-2.46,6.46-6.49
	c0.32-4.15-1.89-6.63-5.51-7.74c-5.01-1.53-10.17-2.54-15.2-4.01c-6.78-1.97-13.23-4.28-17.7-10.53
	c-7.21-10.07-5.93-23.59,3.02-32.09c8.45-8.03,18.66-8.72,29.29-8.06c8.41,0.52,15.91,3.3,21.92,9.59c2.03,2.12,2.85,3.63,0.28,5.93
	c-2.37,2.13-4.48,4.58-6.52,7.05c-2.02,2.45-3.62,2.93-6.22,0.45c-5.66-5.41-12.75-6.1-20.1-4.87c-3.34,0.56-6.05,2.1-6.24,6.13
	c-0.19,4.04,2.04,6.26,5.55,7.25c4.8,1.34,9.7,2.3,14.52,3.55c6.18,1.6,12.21,3.22,16.89,8.27c8.13,8.78,9.14,21.74,2.55,31.77
	C611.52,402.61,601.12,404.35,586.64,405.05z"/>
<path d="M509.33,203.16c-3.92,4.46-7.4,8.53-11.06,12.44c-0.36,0.38-2.13,0.16-2.59-0.37c-6.09-6.88-13.93-7.51-22.21-6.22
	c-3.04,0.47-5.46,2.15-5.81,5.72c-0.38,3.8,1.02,6.76,4.65,7.87c5.37,1.65,10.9,2.76,16.34,4.17c2.47,0.64,4.94,1.34,7.31,2.26
	c8.93,3.47,14.75,9.49,15.54,19.49c0.89,11.24-2.69,20.64-13.16,25.55c-16.45,7.71-32.55,5.83-47.75-4.02
	c-0.64-0.41-1.2-0.96-1.76-1.49c-5.15-4.79-5.13-5.22-0.53-10.26c2.15-2.35,4.17-4.82,6.16-7.3c1.55-1.93,2.97-2.33,4.54-0.06
	c6.26,9.04,15.31,10.87,25.4,9.49c3.57-0.49,6.12-2.76,6.45-6.61c0.33-3.83-1.21-6.93-4.98-8.17c-4.6-1.51-9.38-2.47-14.03-3.86
	c-3.78-1.13-7.63-2.24-11.19-3.91c-8.58-4-12.96-11.01-13.12-20.43c-0.16-9.47,3.57-17.32,12.16-21.51
	c14.53-7.08,29.18-6.6,43.27,1.64C505.28,198.96,507.11,201.19,509.33,203.16z"/>
<path class="st1" d="M662.59,299.29c0,5.18-0.01,9.62,0,14.07c0.01,5.17,0.02,5.18,5.03,5.2c4.74,0.02,9.48,0.1,14.21-0.03
	c2.71-0.07,4.05,0.79,3.92,3.72c-0.16,3.45-0.12,6.91-0.02,10.37c0.07,2.49-1.04,3.42-3.45,3.39c-5.25-0.07-10.5,0.11-15.75-0.05
	c-3.03-0.09-4.02,1.07-3.99,4.04c0.12,11.27-0.01,22.53,0.07,33.8c0.07,10.15,7.03,14.59,16.31,10.1c3.59-1.73,4.95-1.14,5.89,2.49
	c0.83,3.21,2.01,6.34,3.13,9.47c0.72,2.02,0.16,3.29-1.66,4.46c-8.87,5.74-26.06,5.77-34.44-0.58c-7.42-5.61-9.73-13.92-9.89-22.77
	c-0.23-12.16-0.2-24.33-0.01-36.49c0.05-3.6-1.19-4.6-4.64-4.56c-8.84,0.11-7.69,1.04-7.75-7.74c-0.05-9.14-0.02-9.22,8.99-9.58
	c2.5-0.1,3.42-1.02,3.34-3.45c-0.11-3.2-0.18-6.42,0.09-9.59c0.09-1.1,1.1-2.87,1.95-3.05C649.79,301.3,655.72,300.43,662.59,299.29
	z"/>
<path d="M430.31,335.54c0-15.5,0.11-31-0.08-46.5c-0.05-3.67,1.22-4.7,4.64-4.5c3.83,0.23,7.68,0.04,11.53,0.05
	c5.12,0.01,5.13,0.02,5.14,5.03c0,28.7,0,57.39,0,86.09c0,1.28-0.05,2.57,0.05,3.84c0.37,4.74,2.71,6.81,7.35,5.94
	c2.82-0.53,3.77,0.44,4,2.99c0.35,3.95,0.97,7.89,1.08,11.84c0.03,1.1-1.18,2.97-2.16,3.24c-7.52,2.05-15.05,2.02-21.93-2.06
	c-7.29-4.32-9.32-11.74-9.48-19.46c-0.32-15.49-0.1-31-0.1-46.5C430.33,335.54,430.32,335.54,430.31,335.54z"/>
<path class="st0" d="M356.72,309.6c7.63,0,14.94-0.52,22.13,0.15c6.93,0.64,10.69,4.79,11.69,11.75c0.48,3.35,0.41,6.9-0.13,10.25
	c-1.07,6.65-5.08,10.49-11.85,11.1c-6.35,0.57-12.77,0.52-19.16,0.53c-0.89,0-2.56-1.21-2.57-1.88
	C356.67,330.91,356.72,320.32,356.72,309.6z"/>
<path class="st0" d="M519.97,362.89c-0.45,5-0.28,10.06-1.47,14.78c-2.13,8.39-11.64,12.44-19.69,9.09c-3.8-1.58-5.38-4.61-5.61-8.4
	c-0.22-3.59,0.69-6.92,3.99-8.97c1.5-0.93,3.18-1.69,4.88-2.14C507.7,365.78,513.36,364.48,519.97,362.89z"/>
<path class="st0" d="M545.4,225.6c1.48-11.98,8.54-18.43,18.7-17.49c8.54,0.79,13.98,4.35,13.87,17.49
	C567.21,225.6,556.44,225.6,545.4,225.6z"/>
<path class="st0" d="M658.24,236.48c-0.41,4.97-0.42,9.97-1.3,14.8c-1.64,9.02-12.75,13.92-20.84,9.49c-3.4-1.86-4.59-4.92-4.7-8.6
	c-0.12-3.94,0.83-7.41,4.5-9.46c1.54-0.86,3.28-1.42,4.99-1.87C646.39,239.39,651.92,238.06,658.24,236.48z"/>
<path class="st0" d="M314.74,236.48c-0.58,5.37-0.5,11.04-1.91,16.3c-2.2,8.17-12.41,11.99-20.02,8.17
	c-3.48-1.75-4.8-4.76-4.95-8.44c-0.17-3.89,0.57-7.45,4.21-9.63c1.4-0.84,2.99-1.46,4.58-1.88
	C302.37,239.49,308.14,238.11,314.74,236.48z"/>
</svg>
